#!OML:ASF F:\VICON\USERDATA\INSTALL\rory3\rory3.ASF
:FULLY-SPECIFIED
:DEGREES
1183
root 3.51456 18.039 -1.09661 367.762 -29.6992 -5.79195
lowerback 16.384 -3.39901 -2.68206
upperback 6.69987 -4.84842 5.30162
thorax -1.28798 -2.63211 7.98586
lowerneck -9.40486 -5.21342 -12.5173
upperneck 38.2903 -7.43461 4.93287
head 15.8547 -4.53471 3.08398
rclavicle 1.38155e-014 -1.07344e-014
rhumerus -32.7366 16.8062 -78.206
rradius 34.2882
rwrist 41.5456
rhand -33.2711 -8.39668
rfingers 7.12502
rthumb -6.47597 -38.2777
lclavicle 1.38155e-014 -1.07344e-014
lhumerus -21.4851 -3.97216 86.079
lradius 47.7027
lwrist -5.47781
lhand -17.7804 21.2602
lfingers 7.12502
lthumb 8.48222 51.0698
rfemur -85.9007 -3.18043 15.0367
rtibia 120.577
rfoot 17.4412 3.15862
rtoes 10.8639
lfemur -19.7114 0.154895 -15.3302
ltibia 24.013
lfoot -2.25175 -13.8641
ltoes 11.6393
1184
root 3.46627 18.032 -1.14234 367.848 -29.1345 -5.89727
lowerback 16.3654 -3.39758 -2.69349
upperback 6.7232 -4.84713 5.25345
thorax -1.25732 -2.63103 7.93665
lowerneck -9.60221 -5.35483 -12.2703
upperneck 38.3382 -7.66389 4.90444
head 15.9387 -4.59281 2.98551
rclavicle 4.66647e-014 2.13694e-014
rhumerus -33.155 16.447 -78.6087
rradius 34.5788
rwrist 41.1142
rhand -33.3037 -8.42035
rfingers 7.12502
rthumb -6.5074 -38.3004
lclavicle 4.66647e-014 2.13694e-014
lhumerus -21.3103 -4.28197 85.9821
lradius 47.9662
lwrist -5.49358
lhand -17.6025 21.6627
lfingers 7.12502
lthumb 8.65396 51.4653
rfemur -85.4745 -2.87846 15.7328
rtibia 120.52
rfoot 16.8421 2.63825
rtoes 11.6598
lfemur -20.3201 -0.317272 -14.8006
ltibia 24.5463
lfoot -1.74033 -14.1785
ltoes 17.0223
1185
root 3.41482 18.011 -1.18527 367.807 -28.5063 -5.77077
lowerback 16.3377 -3.48012 -2.97253
upperback 6.68728 -4.99374 5.20412
thorax -1.23683 -2.70722 8.06494
lowerneck -9.51425 -5.38541 -12.2064
upperneck 38.2281 -7.71942 4.89976
head 15.8631 -4.60516 2.96337
rclavicle -7.32522e-014 1.68967e-015
rhumerus -33.499 16.5254 -79.0645
rradius 34.6586
rwrist 40.7491
rhand -33.4996 -8.32649
rfingers 7.12502
rthumb -6.69653 -38.2006
lclavicle -7.32522e-014 1.68967e-015
lhumerus -21.2558 -4.37938 85.906
lradius 48.1679
lwrist -5.26956
lhand -17.552 21.6186
lfingers 7.12502
lthumb 8.70265 51.4192
rfemur -85.2837 -2.69244 16.0601
rtibia 120.606
rfoot 16.1981 2.34322
rtoes 11.2131
lfemur -20.7143 -0.54988 -14.6684
ltibia 25.0141
lfoot -1.99546 -14.6881
ltoes 12.9333
1186
root 3.36013 17.994 -1.22475 367.759 -28.0022 -5.64884
lowerback 16.2189 -3.49584 -3.27037
upperback 6.68248 -5.05713 5.11288
thorax -1.15038 -2.74437 8.13539
lowerneck -9.42525 -5.40375 -12.0805
upperneck 38.078 -7.79981 4.98082
head 15.7696 -4.60755 2.96351
rclavicle -1.04486e-013 6.04802e-014
rhumerus -33.8419 16.2243 -79.4844
rradius 34.6045
rwrist 40.8733
rhand -33.9389 -8.24567
rfingers 7.12502
rthumb -7.1206 -38.1059
lclavicle -1.04486e-013 6.04802e-014
lhumerus -21.2015 -4.38478 85.8101
lradius 48.4142
lwrist -4.9027
lhand -17.3083 21.3109
lfingers 7.12502
lthumb 8.93782 51.1016
rfemur -85.1436 -2.3041 16.286
rtibia 120.699
rfoot 15.5261 2.29619
rtoes 9.38544
lfemur -21.0037 -0.706454 -14.5535
ltibia 25.4091
lfoot -2.30027 -15.0647
ltoes 14.4413
1187
root 3.30562 17.982 -1.26374 367.771 -27.6136 -5.678
lowerback 16.0494 -3.49263 -3.45258
upperback 6.74882 -5.08096 5.02903
thorax -0.977623 -2.76571 8.13282
lowerneck -9.55181 -5.39468 -11.9179
upperneck 38.0476 -7.84641 5.10861
head 15.7847 -4.58386 2.98004
rclavicle 5.81818e-014 -5.63555e-014
rhumerus -34.0428 15.9622 -79.9543
rradius 34.5145
rwrist 40.9293
rhand -34.446 -8.23116
rfingers 7.12502
rthumb -7.61008 -38.0742
lclavicle 5.81818e-014 -5.63555e-014
lhumerus -21.0067 -4.37732 85.6239
lradius 48.6753
lwrist -4.5429
lhand -17.2093 21.3954
lfingers 7.12502
lthumb 9.03335 51.182
rfemur -85.026 -1.74893 16.6149
rtibia 120.779
rfoot 15.25 2.17791
rtoes 6.97006
lfemur -21.2147 -0.717601 -14.2748
ltibia 25.5708
lfoot -2.17968 -15.4181
ltoes 11.4851
1188
root 3.24992 17.964 -1.30309 367.776 -27.1993 -5.70034
lowerback 15.9358 -3.49647 -3.68479
upperback 6.78556 -5.11891 5.00869
thorax -0.851499 -2.79469 8.23718
lowerneck -9.60914 -5.38329 -11.8771
upperneck 38.0128 -7.86218 5.21847
head 15.7851 -4.56803 3.01674
rclavicle -8.15769e-015 3.20999e-014
rhumerus -34.2977 15.998 -80.3911
rradius 34.5043
rwrist 40.8263
rhand -34.9538 -8.40437
rfingers 7.12502
rthumb -8.1002 -38.2291
lclavicle -8.15769e-015 3.20999e-014
lhumerus -20.6129 -4.74004 85.4074
lradius 48.7184
lwrist -4.00772
lhand -17.6441 21.5668
lfingers 7.12502
lthumb 8.61383 51.3711
rfemur -85.0469 -1.24086 16.8619
rtibia 120.997
rfoot 15.4841 2.0095
rtoes 6.80147
lfemur -21.3727 -0.658077 -14.0068
ltibia 25.6715
lfoot -2.06143 -15.8463
ltoes 12.3463
1189
root 3.19198 17.9384 -1.33681 367.664 -26.7495 -5.61629
lowerback 15.8473 -3.46468 -3.91974
upperback 6.81901 -5.11006 4.92342
thorax -0.756568 -2.79705 8.26812
lowerneck -9.42628 -5.43028 -11.7459
upperneck 37.8106 -7.99055 5.29306
head 15.6488 -4.59114 3.00602
rclavicle -6.80713e-014 3.60297e-015
rhumerus -34.708 15.7782 -80.792
rradius 34.5338
rwrist 40.9356
rhand -35.7263 -8.57284
rfingers 7.12502
rthumb -8.84569 -38.3674
lclavicle -6.80713e-014 3.60297e-015
lhumerus -20.7881 -4.57889 85.5785
lradius 49.0783
lwrist -4.35009
lhand -17.7879 21.3295
lfingers 7.12502
lthumb 8.47506 51.1395
rfemur -85.0955 -0.874365 16.9284
rtibia 121.445
rfoot 15.5187 2.11362
rtoes 8.87056
lfemur -21.4173 -0.663293 -13.8231
ltibia 25.8163
lfoot -2.3381 -16.4727
ltoes 13.5581
1190
root 3.13354 17.9067 -1.37669 367.539 -25.9846 -5.58834
lowerback 15.861 -3.51372 -4.00407
upperback 6.86122 -5.18615 4.83909
thorax -0.706147 -2.83712 8.23402
lowerneck -9.28025 -5.49791 -11.5139
upperneck 37.6167 -8.13952 5.29491
head 15.5186 -4.61694 2.94225
rclavicle -4.28132e-014 -1.82882e-014
rhumerus -35.0201 15.1644 -81.1251
rradius 34.4661
rwrist 41.282
rhand -36.5764 -8.37836
rfingers 7.12502
rthumb -9.66601 -38.1366
lclavicle -4.28132e-014 -1.82882e-014
lhumerus -20.7203 -4.77634 85.5594
lradius 49.2868
lwrist -4.39925
lhand -17.6312 21.149
lfingers 7.12502
lthumb 8.6262 50.9528
rfemur -85.1744 -0.817732 17.0825
rtibia 122.054
rfoot 14.7062 2.42785
rtoes 9.78932
lfemur -21.6097 -0.895178 -13.5242
ltibia 26.0231
lfoot -2.78642 -17.3591
ltoes 13.6094
1191
root 3.07371 17.8791 -1.41657 367.377 -25.1375 -5.55611
lowerback 16.0182 -3.61175 -4.1069
upperback 6.83127 -5.32867 4.7805
thorax -0.792154 -2.90389 8.26527
lowerneck -9.2529 -5.50219 -11.4269
upperneck 37.6206 -8.1942 5.37947
head 15.5191 -4.61713 2.95564
rclavicle 2.64384e-014 -5.24792e-014
rhumerus -35.3901 14.6354 -81.4292
rradius 34.3639
rwrist 41.4774
rhand -37.3058 -7.77443
rfingers 7.12502
rthumb -10.3696 -37.4987
lclavicle 2.64384e-014 -5.24792e-014
lhumerus -20.6492 -5.00273 85.5048
lradius 49.3801
lwrist -4.33137
lhand -17.6458 20.9958
lfingers 7.12502
lthumb 8.6122 50.8002
rfemur -85.202 -0.88415 17.2386
rtibia 122.689
rfoot 13.1795 3.07102
rtoes 8.37083
lfemur -21.8578 -1.18634 -13.2461
ltibia 26.2953
lfoot -2.88175 -18.0414
ltoes 13.405
1192
root 3.01032 17.8552 -1.45733 367.212 -24.3764 -5.51093
lowerback 16.2775 -3.66498 -4.34667
upperback 6.73126 -5.43239 4.75796
thorax -0.994811 -2.94796 8.4237
lowerneck -9.29398 -5.47847 -11.3766
upperneck 37.7843 -8.2042 5.45579
head 15.6134 -4.60769 2.98026
rclavicle -5.34234e-014 -1.03368e-014
rhumerus -35.9873 14.4439 -81.8023
rradius 34.4521
rwrist 41.5236
rhand -37.85 -7.36599
rfingers 7.12502
rthumb -10.8946 -37.0634
lclavicle -5.34234e-014 -1.03368e-014
lhumerus -20.5302 -5.21293 85.4417
lradius 49.3387
lwrist -4.24314
lhand -17.6295 21.0665
lfingers 7.12502
lthumb 8.62789 50.8702
rfemur -85.281 -0.922728 17.3537
rtibia 123.321
rfoot 11.3004 3.86076
rtoes 6.41549
lfemur -22.1295 -1.28234 -13.0334
ltibia 26.6555
lfoot -2.80462 -18.6507
ltoes 12.9028
1193
root 2.94742 17.8381 -1.49668 367.112 -23.5974 -5.61774
lowerback 16.4336 -3.71482 -4.40415
upperback 6.69332 -5.50528 4.75442
thorax -1.09862 -2.97901 8.48074
lowerneck -9.36888 -5.4846 -11.2978
upperneck 37.9286 -8.24994 5.51199
head 15.7081 -4.60925 2.98422
rclavicle 3.06128e-014 -1.43125e-014
rhumerus -36.5626 14.2901 -82.2381
rradius 34.6649
rwrist 41.5518
rhand -38.0918 -7.62771
rfingers 7.12502
rthumb -11.1278 -37.3127
lclavicle 3.06128e-014 -1.43125e-014
lhumerus -20.1845 -5.72442 85.2416
lradius 49.2128
lwrist -4.04943
lhand -17.4353 21.3318
lfingers 7.12502
lthumb 8.81528 51.1277
rfemur -85.2441 -0.821824 17.541
rtibia 123.83
rfoot 9.36502 4.42206
rtoes 5.439
lfemur -22.4336 -1.27079 -12.6957
ltibia 27.0635
lfoot -2.73144 -19.3169
ltoes 13.0143
